<?xml version="1.0" standalone="no"?>
<!DOCTYPE svg PUBLIC "-//W3C//DTD SVG 20010904//EN"
 "http://www.w3.org/TR/2001/REC-SVG-20010904/DTD/svg10.dtd">
<svg version="1.0" xmlns="http://www.w3.org/2000/svg"
 width="512.000000pt" height="512.000000pt" viewBox="0 0 512.000000 512.000000"
 preserveAspectRatio="xMidYMid meet">
<metadata>
Created by potrace 1.14, written by Peter Selinger 2001-2017
</metadata>
<g transform="translate(0.000000,512.000000) scale(0.100000,-0.100000)"
fill="#000000" stroke="none">
<path d="M2518 4945 c-18 -10 -31 -28 -37 -53 -47 -183 -75 -282 -106 -366
-129 -360 -300 -673 -504 -921 -81 -99 -90 -109 -146 -168 -46 -49 -52 -67
-36 -109 12 -32 41 -45 143 -66 l87 -18 -52 -75 c-29 -42 -66 -93 -83 -114
l-30 -38 -61 81 c-121 160 -244 379 -336 599 -47 110 -139 377 -152 440 -11
54 -41 83 -85 83 -44 0 -74 -29 -85 -83 -14 -64 -105 -329 -151 -439 -94 -223
-209 -427 -338 -602 -72 -96 -80 -130 -41 -165 23 -22 85 -41 132 -41 17 0 34
-3 37 -8 18 -30 -221 -495 -382 -740 -47 -72 -53 -87 -48 -117 9 -45 33 -60
125 -81 42 -9 82 -18 88 -20 19 -5 -155 -326 -233 -431 -13 -17 -24 -34 -24
-38 0 -5 -16 -26 -88 -120 -47 -61 -79 -102 -89 -113 -22 -23 -27 -64 -12 -91
17 -31 49 -47 106 -55 22 -3 52 -8 65 -10 90 -21 380 -31 410 -15 28 15 47 39
48 60 0 12 14 18 57 23 31 4 67 9 80 12 l23 6 0 -297 c0 -205 -4 -310 -12
-338 -12 -40 -79 -115 -186 -210 -48 -42 -55 -79 -23 -118 l19 -24 504 -3
c276 -1 513 0 525 3 13 3 30 19 38 36 25 47 12 82 -45 124 -62 45 -142 133
-163 178 -13 27 -17 65 -17 170 0 155 -7 184 -50 198 l-30 11 0 87 0 88 73 1
c190 3 406 45 506 97 31 16 31 15 63 -22 18 -21 61 -66 96 -99 l64 -61 -4
-219 c-3 -211 -4 -221 -29 -274 -35 -74 -69 -113 -140 -155 -63 -39 -78 -64
-62 -112 18 -53 13 -53 635 -53 317 0 584 3 593 6 19 8 45 55 45 82 0 26 -27
55 -75 80 -22 11 -54 35 -71 54 -81 88 -94 144 -94 398 l0 195 58 55 c31 30
73 74 92 97 35 40 37 41 65 28 131 -58 321 -93 538 -99 l42 -1 3 -87 c3 -86 2
-88 -22 -94 -47 -11 -56 -41 -56 -185 0 -74 -5 -149 -12 -172 -12 -40 -79
-115 -186 -210 -48 -42 -55 -79 -23 -118 l19 -24 504 -3 c276 -1 513 0 525 3
13 3 30 19 38 36 25 47 12 82 -45 124 -62 45 -142 133 -163 178 -15 30 -17 77
-17 342 l0 307 23 -6 c13 -3 48 -8 78 -12 52 -6 57 -9 68 -39 18 -50 47 -57
207 -51 77 3 148 8 159 10 11 2 42 7 68 10 118 16 152 26 175 52 40 45 31 66
-83 209 -87 108 -220 319 -314 497 -57 110 -62 96 42 118 102 22 142 52 135
103 -2 12 -30 65 -64 117 -79 124 -179 297 -214 371 -15 33 -32 65 -37 72 -5
6 -35 70 -67 141 -60 136 -60 145 -6 147 135 4 187 82 114 166 -38 43 -155
218 -206 308 -119 209 -236 497 -312 766 -17 61 -38 85 -77 90 -44 6 -77 -25
-95 -89 -24 -87 -103 -323 -118 -357 -8 -16 -24 -54 -36 -84 -84 -210 -262
-517 -372 -644 l-25 -29 -30 39 c-17 21 -54 71 -82 112 l-51 75 83 17 c187 37
202 85 72 222 -204 216 -423 565 -545 872 -17 44 -40 100 -50 125 -27 67 -68
200 -101 330 -16 63 -35 121 -42 127 -20 20 -70 24 -99 8z m-900 -2097 c-25
-29 -49 -52 -54 -52 -11 2 -57 84 -47 85 85 6 128 10 132 14 2 3 6 5 9 5 3 0
-16 -24 -40 -52z m1956 36 c20 1 36 0 36 -2 0 -2 -12 -24 -26 -48 -26 -44 -27
-44 -46 -27 -11 10 -33 34 -49 54 l-28 36 38 -7 c22 -4 56 -7 75 -6z"/>
</g>
</svg>
